<svg xmlns="http://www.w3.org/2000/svg" viewBox="0 0 256 256">
  <defs>
    <radialGradient id="body" cx="36%" cy="26%" r="75%"><stop offset="0" stop-color="#ff8d72"/><stop offset=".68" stop-color="#e85d4b"/><stop offset="1" stop-color="#b83c32"/></radialGradient>
    <filter id="ds" x="-20%" y="-20%" width="140%" height="150%"><feDropShadow dx="0" dy="8" stdDeviation="7" flood-color="#2b170f" flood-opacity=".28"/></filter>
  </defs>
  <g filter="url(#ds)"><path d="M62 76q-30-38-8-59q31 15 38 52z" fill="#e9be78" stroke="#b67645" stroke-width="5"/><path d="M194 76q30-38 8-59q-31 15-38 52z" fill="#e9be78" stroke="#b67645" stroke-width="5"/><ellipse cx="128" cy="137" rx="92" ry="91" fill="url(#body)"/>
  <ellipse cx="92" cy="82" rx="27" ry="13" fill="#fff" opacity=".18" transform="rotate(-24 92 82)"/>
  <circle cx="67" cy="164" r="10" fill="#ff8d72" opacity=".72"/><circle cx="191" cy="169" r="8" fill="#ff8d72" opacity=".6"/>
  <ellipse cx="92" cy="112" rx="18" ry="22" fill="#fffdf6"/><ellipse cx="164" cy="112" rx="18" ry="22" fill="#fffdf6"/><circle cx="95" cy="116" r="10" fill="#26304d"/><circle cx="167" cy="116" r="10" fill="#26304d"/><circle cx="90" cy="110" r="4" fill="#fff"/><circle cx="162" cy="110" r="4" fill="#fff"/><path d="M95 150q33 36 66 0q-4 48-33 50q-29-2-33-50z" fill="#6c2438"/><path d="M109 179q19 17 38 0" fill="#ff7c93"/></g>
</svg>